<svg xmlns="http://www.w3.org/2000/svg" width="20" height="20" fill="black" viewBox="0 0 24 24"  > <path d="M17.472 14.382c-.297-.149-1.758-.867-2.03-.967-.273-.099-.471-.148-.67.15-.197.297-.767.966-.94 1.164-.173.199-.347.223-.644.075-.297-.149-1.255-.463-2.39-1.475-.883-.788-1.48-1.761-1.653-2.059-.173-.297-.018-.458.13-.606.134-.133.298-.347.446-.52.149-.174.198-.298.298-.497.099-.198.05-.372-.025-.521-.075-.148-.669-1.612-.916-2.207-.242-.579-.487-.5-.669-.51-.173-.008-.372-.01-.571-.01-.198 0-.52.074-.792.372-.272.297-1.04 1.016-1.04 2.479 0 1.462 1.065 2.875 1.213 3.074.149.198 2.099 3.2 5.077 4.363.709.306 1.262.489 1.694.625.712.227 1.36.195 1.872.118.571-.085 1.758-.719 2.006-1.413.248-.695.248-1.29.173-1.413-.074-.124-.272-.198-.57-.347zm-5.421 7.617h-.001a9.87 9.87 0 01-5.031-1.378l-.361-.214-3.741.982.999-3.648-.235-.374A9.86 9.86 0 012.1 12.045C2.1 6.477 6.574 2 12.149 2c2.652 0 5.142 1.037 7.014 2.912A9.825 9.825 0 0122.2 12.048c-.003 5.572-4.477 10.048-10.149 10.048zm8.413-18.462A11.815 11.815 0 0012.149 0C5.453 0 0 5.453 0 12.045c0 2.128.557 4.199 1.613 6.032L.057 24l6.093-1.601a11.822 11.822 0 005.999 1.607h.005c6.695 0 12.149-5.453 12.151-12.146a11.82 11.82 0 00-3.52-8.382z"/> </svg>